<svg xmlns="http://www.w3.org/2000/svg" width="24" height="24" fill="none" id="check-meeting"><path fill="#000" d="M13 3a1 1 0 1 0-2 0H8a1 1 0 0 0-2 0 4 4 0 0 0-4 4v.004c.033-.003.066-.004.1-.004h19.8c.034 0 .067.001.1.004V7a4 4 0 0 0-4-4 1 1 0 1 0-2 0h-3Z"></path><path fill="#000" fill-rule="evenodd" d="M2 18V8.996c.033.003.066.004.1.004h19.8c.034 0 .067-.001.1-.004V18a4 4 0 0 1-4 4H6a4 4 0 0 1-4-4Zm13.707-5.707a1 1 0 0 0-1.414 0L12 14.586l-1.293-1.293a1 1 0 0 0-1.414 1.414l2 2a1 1 0 0 0 1.414 0l3-3a1 1 0 0 0 0-1.414Z" clip-rule="evenodd"></path></svg>