<svg xmlns="http://www.w3.org/2000/svg" width="36" height="36" id="currency"><path style="text-indent:0;text-align:start;line-height:normal;text-transform:none;block-progression:tb" d="M8.006 8.018h22.072c.526.046.928.46.928 1v4.957c-.174.016-.332.043-.526.043h-4.974c-1.93 0-3.5 1.57-3.5 3.5s1.57 3.5 3.5 3.5H30.512a.501.501 0 0 0 .146-.024c.125-.004.229-.028.348-.037v5.027c0 .573-.446 1.016-1.018 1.016H14.637a7.432 7.432 0 0 0 1.506-4.482.502.502 0 0 0-.04-.188c-.106-4.043-3.406-7.312-7.482-7.312-.555 0-1.095.064-1.615.18v-6.18a.986.986 0 0 1 1-1zm23.723 0h.277c.562 0 1 .437 1 1v4.26c-.224.184-.554.365-1 .507V9.018c0-.365-.106-.704-.277-1zm-23.723 1v1h1v-1zm2 0v1h1v-1zm2 0v1h1v-1zm2 0v1h1v-1zm2 0v1h1v-1zm2 0v1h1v-1zm2 0v1h1v-1zm2 0v1h1v-1zm2 0v1h1v-1zm2 0v1h1v-1zm2 0v1h1v-1zM8.023 11.016l-.003 1 1 .01.003-1zm19.989 1.004v1.007h.994V12.02zm-19.998.996-.006 1 1 .01.006-1zm24.992 1.38v4.86c-.418.356-1.206.752-2.5.762h-5a2.484 2.484 0 0 1-2.5-2.5c0-1.394 1.106-2.5 2.5-2.5h4.974c1.102 0 1.886-.276 2.526-.622zM8.62 16.018c3.602 0 6.522 2.909 6.522 6.5 0 3.592-2.92 6.5-6.522 6.5a6.47 6.47 0 0 1-6.48-6.5c0-3.595 2.877-6.5 6.48-6.5zm16.969 0c-.869 0-1.584.717-1.584 1.586 0 .868.715 1.583 1.584 1.583a1.59 1.59 0 0 0 1.582-1.583c0-.87-.713-1.586-1.582-1.586zm0 1c.328 0 .582.257.582.586a.575.575 0 0 1-.582.583.577.577 0 0 1-.584-.583c0-.33.256-.586.584-.586zm-16.955 1a.52.52 0 0 0-.492.507v.541c-.965.21-1.75.911-1.75 1.895 0 1.163 1.042 2.055 2.25 2.055.73 0 1.248.493 1.248 1.052 0 .56-.518 1.055-1.248 1.055s-1.25-.496-1.25-1.055a.52.52 0 0 0-.5-.507.52.52 0 0 0-.5.507c0 .998.769 1.792 1.75 1.998v.446a.52.52 0 0 0 .5.507.52.52 0 0 0 .5-.507v-.547c.964-.21 1.748-.913 1.748-1.897 0-1.299-1.16-2.053-2.248-2.053-.73 0-1.25-.495-1.25-1.054 0-.552.508-1.038 1.222-1.051a.51.51 0 0 0 .057.002c.713.014 1.219.498 1.219 1.049a.52.52 0 0 0 .5.507.52.52 0 0 0 .5-.507c0-.998-.768-1.794-1.748-2v-.436a.52.52 0 0 0-.508-.507zm24.37 2.431v5.569c0 .562-.437 1-1 1h-.296c.184-.304.297-.655.297-1.034v-5.18c.378-.09.71-.21 1-.355zm-5 2.072-.001.997h1.01v-.997zm-12.062 2.497v1h1v-1zm2 0v1h1v-1zm2 0v1h1v-1zm2 0v1h1v-1zm2 0v1h1v-1zm2 0v1h1v-1zm2 0v1h1v-1z" color="#000" font-family="sans-serif" font-weight="400" overflow="visible"></path></svg>