<svg xmlns="http://www.w3.org/2000/svg" viewBox="0 0 64 64" id="shooting-range-date"><path fill="#e6e9ed" d="M42.99 6.48v2.5a1.5 1.5 0 01-3 0v-5a1.5 1.5 0 113 0zM36.01 38.48v-4h-4v4zm12.98-5a14.02917 14.02917 0 00-13.09 9H32.01v4h3c-.03.33-.04.68-.04 1.02a13.95266 13.95266 0 00.32 2.98H.99v-36h48l.02 19zm-4-3v-4h-4v4zm0-8v-4h-4v4zm-9 8v-4h-4v4zm0-8v-4h-4v4zm-9 24v-4h-4v4zm0-8v-4h-4v4zm0-8v-4h-4v4zm0-8v-4h-4v4zm-9 24v-4h-4v4zm0-8v-4h-4v4zm0-8v-4h-4v4zm0-8v-4h-4v4zm-9 24v-4h-4v4zm0-8v-4h-4v4zm0-8v-4h-4v4zm0-8v-4h-4v4zM9.99 6.48v2.5a1.5 1.5 0 01-3 0v-5a1.5 1.5 0 013 0z"></path><path fill="#ccd1d9" d="M38.23,56.5.99,56.51V53.5H36.31a14.02469,14.02469,0,0,0,1.93,2.99Z"></path><path fill="#e6e9ed" d="M31.99,6.48v2.5a1.5,1.5,0,0,1-3,0v-5a1.5,1.5,0,0,1,3,0Z"></path><path fill="#ccd1d9" d="M36.31,53.5H.99V50.48h34.3A14.13151,14.13151,0,0,0,36.31,53.5Z"></path><path fill="#e6e9ed" d="M20.99,6.48v2.5a1.5,1.5,0,0,1-3,0v-5a1.5,1.5,0,0,1,3,0Z"></path><rect width="5" height="5" x="4.49" y="17.98" fill="#fff"></rect><rect width="5" height="5" x="40.49" y="17.98" fill="#fff"></rect><rect width="5" height="5" x="31.49" y="17.98" fill="#fff"></rect><rect width="5" height="5" x="13.49" y="17.98" fill="#fff"></rect><rect width="5" height="5" x="22.49" y="17.98" fill="#fff"></rect><rect width="5" height="5" x="4.49" y="25.98" fill="#fff"></rect><rect width="5" height="5" x="40.49" y="25.98" fill="#fff"></rect><rect width="5" height="5" x="31.49" y="25.98" fill="#fff"></rect><rect width="5" height="5" x="13.49" y="25.98" fill="#fff"></rect><rect width="5" height="5" x="22.49" y="25.98" fill="#fff"></rect><rect width="5" height="5" x="4.49" y="33.98" fill="#fff"></rect><rect width="5" height="5" x="40.49" y="33.98" fill="#fff"></rect><rect width="5" height="5" x="31.49" y="33.98" fill="#fff"></rect><rect width="5" height="5" x="13.49" y="33.98" fill="#fff"></rect><rect width="5" height="5" x="22.49" y="33.98" fill="#fff"></rect><rect width="5" height="5" x="4.49" y="41.98" fill="#fff"></rect><rect width="5" height="5" x="40.49" y="41.98" fill="#fff"></rect><rect width="5" height="5" x="31.49" y="41.98" fill="#fff"></rect><rect width="5" height="5" x="13.49" y="41.98" fill="#fff"></rect><rect width="5" height="5" x="22.49" y="41.98" fill="#fff"></rect><path fill="#ed5565" d="M48.99,8.48v6H.99v-6a2.00588,2.00588,0,0,1,2-2h4v2.5a1.5,1.5,0,0,0,3,0V6.48h8v2.5a1.5,1.5,0,0,0,3,0V6.48h8v2.5a1.5,1.5,0,0,0,3,0V6.48h8v2.5a1.5,1.5,0,0,0,3,0V6.48h4A1.99944,1.99944,0,0,1,48.99,8.48Z"></path><rect width="41.343" height="1.02" x=".99" y="51.48" fill="#e6e9ed"></rect><rect width="41.343" height="1.02" x=".99" y="53.5" fill="#e6e9ed"></rect><rect width="41.343" height="1.02" x=".99" y="55.52" fill="#e6e9ed"></rect><circle cx="48.99" cy="47.5" r="2" fill="#fff"></circle><path fill="#ed5565" d="M48.99,41.5a6,6,0,1,1-6,6A6.00475,6.00475,0,0,1,48.99,41.5Zm2,6a2,2,0,1,0-2,2A1.99944,1.99944,0,0,0,50.99,47.5Z"></path><path fill="#ed5565" d="M49.01,33.48A14.02153,14.02153,0,1,1,34.97,47.5c0-.34.01-.69.04-1.02a13.61991,13.61991,0,0,1,.89-4,14.02917,14.02917,0,0,1,13.09-9ZM58.99,47.5a10,10,0,1,0-10,10A10.00365,10.00365,0,0,0,58.99,47.5Z"></path><path fill="#fff" d="M48.99,37.5a10,10,0,1,1-10,10A10.00365,10.00365,0,0,1,48.99,37.5Zm6,10a6,6,0,1,0-6,6A6.00475,6.00475,0,0,0,54.99,47.5Z"></path></svg>