<svg width="25" height="25" viewBox="0 0 25 25" fill="none" xmlns="http://www.w3.org/2000/svg">
<path d="M19.7916 10.4167C20.9687 10.4167 22.0416 10.0104 22.9166 9.35417V18.75C22.9166 19.8958 21.9791 20.8333 20.8333 20.8333H4.16659C3.02075 20.8333 2.08325 19.8958 2.08325 18.75V6.25C2.08325 5.10417 3.02075 4.16667 4.16659 4.16667H14.6874C14.6249 4.5 14.5833 4.85417 14.5833 5.20834C14.5833 6.75 15.2603 8.11459 16.3228 9.07292L12.4999 11.4583L5.52075 7.09375C5.42228 7.02556 5.31099 6.97805 5.19362 6.95411C5.07626 6.93018 4.95525 6.9303 4.83793 6.95448C4.72062 6.97866 4.60943 7.02639 4.51109 7.09479C4.41276 7.16319 4.32932 7.25082 4.26584 7.3524C4.20235 7.45397 4.16014 7.56738 4.14175 7.68574C4.12336 7.8041 4.12918 7.92496 4.15885 8.04101C4.18853 8.15706 4.24144 8.26588 4.31439 8.36089C4.38733 8.4559 4.4788 8.53512 4.58325 8.59375L11.9478 13.1979C12.2812 13.4063 12.7187 13.4063 13.052 13.1979L18.0208 10.0938C18.5833 10.2917 19.1666 10.4167 19.7916 10.4167ZM16.6666 5.20834C16.6666 6.9375 18.0624 8.33334 19.7916 8.33334C21.5208 8.33334 22.9166 6.9375 22.9166 5.20834C22.9166 3.47917 21.5208 2.08334 19.7916 2.08334C18.0624 2.08334 16.6666 3.47917 16.6666 5.20834Z" fill="white"/>
</svg>
